<svg width="185" height="184" viewBox="0 0 185 184" fill="none" xmlns="http://www.w3.org/2000/svg">
<rect x="118.584" y="32.5129" width="41.4421" height="48.3491" rx="13.0626" transform="rotate(42.7275 118.584 32.5129)" fill="url(#paint0_linear_707_57)"/>
<g filter="url(#filter0_b_707_57)">
<mask id="path-2-inside-1_707_57" fill="white">
<path d="M99.8381 52.8082C102.426 50.006 106.796 49.8326 109.598 52.4209L129.894 71.1668C132.696 73.7551 132.869 78.125 130.281 80.9271L90.6987 123.781C88.9999 125.62 86.8332 126.963 84.4303 127.666L72.6416 131.115L54.3761 114.244L56.8796 102.218C57.39 99.7673 58.557 97.501 60.2558 95.6618L99.8381 52.8082Z"/>
</mask>
<path d="M99.8381 52.8082C102.426 50.006 106.796 49.8326 109.598 52.4209L129.894 71.1668C132.696 73.7551 132.869 78.125 130.281 80.9271L90.6987 123.781C88.9999 125.62 86.8332 126.963 84.4303 127.666L72.6416 131.115L54.3761 114.244L56.8796 102.218C57.39 99.7673 58.557 97.501 60.2558 95.6618L99.8381 52.8082Z" fill="#D5D5D5" fill-opacity="0.6"/>
<path d="M109.598 52.4209L109.183 52.8704L109.183 52.8704L109.598 52.4209ZM99.8381 52.8082L99.3886 52.393L99.3886 52.393L99.8381 52.8082ZM129.894 71.1668L129.478 71.6163L129.478 71.6163L129.894 71.1668ZM130.281 80.9271L130.73 81.3423L130.73 81.3423L130.281 80.9271ZM90.6987 123.781L90.2492 123.366L90.2492 123.366L90.6987 123.781ZM84.4303 127.666L84.6021 128.253L84.6021 128.253L84.4303 127.666ZM72.6416 131.115L72.2264 131.565L72.4809 131.8L72.8134 131.702L72.6416 131.115ZM54.3761 114.244L53.777 114.119L53.7064 114.458L53.9609 114.693L54.3761 114.244ZM56.8796 102.218L56.2805 102.094L56.2805 102.094L56.8796 102.218ZM60.2558 95.6618L59.8064 95.2466L59.8064 95.2466L60.2558 95.6618ZM110.014 51.9714C106.963 49.1538 102.206 49.3426 99.3886 52.393L100.288 53.2234C102.647 50.6694 106.629 50.5114 109.183 52.8704L110.014 51.9714ZM130.309 70.7174L110.014 51.9714L109.183 52.8704L129.478 71.6163L130.309 70.7174ZM130.73 81.3423C133.548 78.2919 133.359 73.5349 130.309 70.7174L129.478 71.6163C132.032 73.9753 132.19 77.958 129.831 80.512L130.73 81.3423ZM91.1482 124.196L130.73 81.3423L129.831 80.512L90.2492 123.366L91.1482 124.196ZM84.6021 128.253C87.1115 127.519 89.3742 126.117 91.1482 124.196L90.2492 123.366C88.6257 125.123 86.5549 126.407 84.2584 127.079L84.6021 128.253ZM72.8134 131.702L84.6021 128.253L84.2584 127.079L72.4698 130.528L72.8134 131.702ZM73.0568 130.666L54.7912 113.794L53.9609 114.693L72.2264 131.565L73.0568 130.666ZM59.8064 95.2466C58.0323 97.1673 56.8136 99.534 56.2805 102.094L57.4786 102.343C57.9665 100.001 59.0818 97.8347 60.7053 96.077L59.8064 95.2466ZM99.3886 52.393L59.8064 95.2466L60.7053 96.077L100.288 53.2234L99.3886 52.393ZM54.9751 114.369L57.4786 102.343L56.2805 102.094L53.777 114.119L54.9751 114.369Z" fill="url(#paint1_linear_707_57)" mask="url(#path-2-inside-1_707_57)"/>
</g>
<g filter="url(#filter1_b_707_57)">
<rect width="27.628" height="6.90701" rx="3.45351" transform="matrix(-0.734589 -0.678512 -0.678513 0.734589 125.207 76.2406)" fill="url(#paint2_linear_707_57)" fill-opacity="0.9"/>
<rect x="-0.345868" y="0.0137252" width="27.1385" height="6.4175" rx="3.20875" transform="matrix(-0.734589 -0.678512 -0.678513 0.734589 124.616 76.0096)" stroke="url(#paint3_linear_707_57)" stroke-width="0.489516"/>
</g>
<path d="M72.6417 131.115L54.376 114.244L50.6229 132.266C50.0914 134.818 52.4714 137.017 54.9736 136.285L72.6417 131.115Z" fill="url(#paint4_linear_707_57)"/>
<defs>
<filter id="filter0_b_707_57" x="41.3135" y="37.5251" width="103.863" height="106.653" filterUnits="userSpaceOnUse" color-interpolation-filters="sRGB">
<feFlood flood-opacity="0" result="BackgroundImageFix"/>
<feGaussianBlur in="BackgroundImageFix" stdDeviation="6.53129"/>
<feComposite in2="SourceAlpha" operator="in" result="effect1_backgroundBlur_707_57"/>
<feBlend mode="normal" in="SourceGraphic" in2="effect1_backgroundBlur_707_57" result="shape"/>
</filter>
<filter id="filter1_b_707_57" x="75.5268" y="32.7961" width="74.3788" height="73.2169" filterUnits="userSpaceOnUse" color-interpolation-filters="sRGB">
<feFlood flood-opacity="0" result="BackgroundImageFix"/>
<feGaussianBlur in="BackgroundImageFix" stdDeviation="13.0626"/>
<feComposite in2="SourceAlpha" operator="in" result="effect1_backgroundBlur_707_57"/>
<feBlend mode="normal" in="SourceGraphic" in2="effect1_backgroundBlur_707_57" result="shape"/>
</filter>
<linearGradient id="paint0_linear_707_57" x1="121.393" y1="-1.94401" x2="64.9409" y2="24.8233" gradientUnits="userSpaceOnUse">
<stop stop-color="#D1D1D1"/>
<stop offset="1" stop-color="#4A4A4A"/>
</linearGradient>
<linearGradient id="paint1_linear_707_57" x1="47.0484" y1="51.9856" x2="103.249" y2="127.744" gradientUnits="userSpaceOnUse">
<stop stop-color="white"/>
<stop offset="0.765625" stop-color="white" stop-opacity="0"/>
</linearGradient>
<linearGradient id="paint2_linear_707_57" x1="28.1556" y1="3.85131" x2="-11.7222" y2="2.83569" gradientUnits="userSpaceOnUse">
<stop stop-color="#FCFDFE"/>
<stop offset="1" stop-color="#FCFDFE" stop-opacity="0"/>
</linearGradient>
<linearGradient id="paint3_linear_707_57" x1="27.3252" y1="4.75029" x2="13.814" y2="6.90701" gradientUnits="userSpaceOnUse">
<stop stop-color="white"/>
<stop offset="1" stop-color="white" stop-opacity="0"/>
</linearGradient>
<linearGradient id="paint4_linear_707_57" x1="64.0581" y1="106.246" x2="31.5686" y2="103.689" gradientUnits="userSpaceOnUse">
<stop stop-color="#D1D1D1"/>
<stop offset="1" stop-color="#4A4A4A"/>
</linearGradient>
</defs>
</svg>